<?xml version="1.0" encoding="iso-8859-1"?>
<!-- Generator: Adobe Illustrator 15.1.0, SVG Export Plug-In . SVG Version: 6.00 Build 0)  -->
<!DOCTYPE svg PUBLIC "-//W3C//DTD SVG 1.1//EN" "http://www.w3.org/Graphics/SVG/1.1/DTD/svg11.dtd">
<svg version="1.1" id="Layer_1" xmlns="http://www.w3.org/2000/svg" xmlns:xlink="http://www.w3.org/1999/xlink" x="0px" y="0px"
	 width="300px" height="300px" viewBox="0 0 300 300" style="enable-background:new 0 0 300 300;" xml:space="preserve">
<path style="opacity:0.75;fill:#FFFFFF;" d="M289.808,153.292c0,6.627-5.373,12-12,12H19.199c-6.627,0-12-5.373-12-12v-33.454
	c0-6.627,5.373-12,12-12h258.609c6.627,0,12,5.373,12,12V153.292z"/>
<g>
	<path style="fill:#575756;" d="M59.956,137.615c-1.17,0-2.43-0.06-3.27-0.12v8.97c0,0.301-0.21,0.57-0.51,0.57h-0.3
		c-0.3,0-0.51-0.27-0.51-0.57v-21.148c0-0.271,0.24-0.54,0.51-0.57c1.05-0.06,2.79-0.15,4.08-0.15c5.1,0,8.16,1.771,8.16,6.09v0.511
		C68.116,135.905,65.056,137.615,59.956,137.615z M66.796,130.686c0-3.72-2.37-4.92-6.84-4.92c-1.26,0-2.4,0.03-3.27,0.091v10.469
		c0.93,0.061,2.25,0.12,3.27,0.12c4.65,0,6.84-1.439,6.84-5.249V130.686z"/>
	<path style="fill:#575756;" d="M77.625,148.715c-0.93,3.21-2.07,4.17-4.86,4.17c-0.69,0-1.32-0.09-1.86-0.18
		c-0.36-0.061-0.6-0.12-0.6-0.42v-0.33c0-0.36,0.15-0.48,0.63-0.42c0.45,0.06,1.47,0.18,1.95,0.18c2.16,0,2.85-0.66,3.57-3.27
		l0.39-1.41h-0.42c-0.93,0-1.41-0.24-1.83-1.68l-4.05-13.71c-0.12-0.39,0-0.72,0.48-0.72h0.27c0.33,0,0.42,0.21,0.48,0.42l4.05,13.8
		c0.18,0.63,0.45,0.66,0.69,0.66h0.69l4.11-14.49c0.06-0.21,0.15-0.39,0.54-0.39h0.27c0.48,0,0.54,0.36,0.42,0.75L77.625,148.715z"
		/>
	<path style="fill:#575756;" d="M92.205,148.715c-0.93,3.21-2.07,4.17-4.859,4.17c-0.69,0-1.32-0.09-1.86-0.18
		c-0.36-0.061-0.6-0.12-0.6-0.42v-0.33c0-0.36,0.15-0.48,0.63-0.42c0.45,0.06,1.47,0.18,1.95,0.18c2.16,0,2.85-0.66,3.57-3.27
		l0.39-1.41h-0.42c-0.93,0-1.41-0.24-1.83-1.68l-4.05-13.71c-0.12-0.39,0-0.72,0.48-0.72h0.27c0.33,0,0.42,0.21,0.48,0.42l4.05,13.8
		c0.18,0.63,0.45,0.66,0.69,0.66h0.69l4.11-14.49c0.06-0.21,0.15-0.39,0.54-0.39h0.27c0.48,0,0.54,0.36,0.42,0.75L92.205,148.715z"
		/>
	<path style="fill:#575756;" d="M111.015,147.215h-0.3c-0.3,0-0.48-0.27-0.48-0.569v-10.11c0-2.939-1.23-4.59-4.44-4.59
		c-1.29,0-2.91,0.21-4.05,0.54v14.16c0,0.3-0.21,0.569-0.51,0.569h-0.3c-0.3,0-0.51-0.27-0.51-0.569v-21.329
		c0-0.301,0.21-0.57,0.51-0.57h0.3c0.3,0,0.51,0.27,0.51,0.57v5.999c1.17-0.3,2.73-0.54,4.05-0.54c4.17,0,5.729,2.4,5.729,5.76
		v10.11C111.524,146.945,111.345,147.215,111.015,147.215z"/>
	<path style="fill:#575756;" d="M125.055,147.215c-0.36,0-0.6-0.06-0.9-0.359l-7.26-7.77v7.56c0,0.3-0.27,0.569-0.57,0.569h-0.18
		c-0.3,0-0.57-0.27-0.57-0.569v-21.329c0-0.301,0.27-0.57,0.57-0.57h0.18c0.3,0,0.57,0.27,0.57,0.57v12.629l7.379-6.899
		c0.21-0.18,0.48-0.271,0.72-0.271c0.57,0,0.81,0.631,0.39,0.99l-7.35,6.72l7.379,7.8
		C125.774,146.675,125.625,147.215,125.055,147.215z"/>
	<path style="fill:#575756;" d="M138.434,147.035h-0.15c-0.33,0-0.6-0.27-0.6-0.6v-0.75c-1.47,0.81-3.24,1.529-5.1,1.529
		c-2.25,0-4.59-1.08-4.59-4.829v-0.391c0-3.09,1.95-4.619,7.41-4.619h2.31v-1.08c0-3.12-0.87-4.351-3.78-4.351
		c-1.98,0-2.85,0.12-4.26,0.271c-0.3,0.03-0.69,0-0.69-0.45v-0.18c0-0.39,0.24-0.48,0.69-0.54c1.26-0.15,2.28-0.271,4.26-0.271
		c4.05,0,5.1,2.28,5.1,5.521v10.14C139.034,146.766,138.764,147.035,138.434,147.035z M137.714,138.546h-2.31
		c-4.53,0-6.09,0.899-6.09,3.449v0.391c0,2.789,1.47,3.659,3.27,3.659c1.68,0,3.12-0.45,5.13-1.529V138.546z M131.654,127.776h-0.18
		c-0.3,0-0.57-0.24-0.57-0.57v-2.22c0-0.3,0.27-0.57,0.57-0.57h0.18c0.3,0,0.57,0.271,0.57,0.57v2.22
		C132.225,127.536,131.955,127.776,131.654,127.776z M136.154,127.776h-0.18c-0.3,0-0.57-0.24-0.57-0.57v-2.22
		c0-0.3,0.27-0.57,0.57-0.57h0.18c0.3,0,0.57,0.271,0.57,0.57v2.22C136.724,127.536,136.454,127.776,136.154,127.776z"/>
	<path style="fill:#575756;" d="M144.284,127.956h-0.18c-0.3,0-0.57-0.24-0.57-0.57v-2.22c0-0.3,0.27-0.57,0.57-0.57h0.18
		c0.3,0,0.57,0.271,0.57,0.57v2.22C144.854,127.716,144.584,127.956,144.284,127.956z M144.284,147.215h-0.18
		c-0.3,0-0.57-0.27-0.57-0.569v-15.149c0-0.3,0.27-0.57,0.57-0.57h0.18c0.3,0,0.57,0.271,0.57,0.57v15.149
		C144.854,146.945,144.584,147.215,144.284,147.215z"/>
	<path style="fill:#575756;" d="M153.764,147.215c-1.35,0-3.27-0.21-4.35-0.42c-0.42-0.09-0.66-0.149-0.66-0.479v-0.33
		c0-0.36,0.3-0.48,0.66-0.42c1.439,0.24,3.18,0.479,4.409,0.479c2.16,0,3.811-0.569,3.811-3c0-1.229-0.66-1.89-3.181-3.27
		l-1.92-1.05c-2.25-1.23-3.629-2.22-3.629-4.26c0-2.79,2.22-3.69,4.59-3.69c2.159,0,3.27,0.15,4.289,0.271
		c0.42,0.06,0.63,0.12,0.63,0.51v0.24c0,0.479-0.18,0.54-0.63,0.479c-0.779-0.09-2.52-0.33-4.17-0.33c-1.92,0-3.39,0.391-3.39,2.521
		c0,1.319,1.08,2.1,2.91,3.12l2.01,1.109c2.49,1.38,3.81,2.37,3.81,4.35C158.953,146.255,156.554,147.215,153.764,147.215z"/>
	<path style="fill:#575756;" d="M173.562,139.296h-10.14v0.63c0,5.039,2.43,6.119,5.43,6.119c1.32,0,2.97-0.21,4.44-0.51
		c0.3-0.06,0.63,0,0.63,0.39v0.21c0,0.33-0.12,0.48-0.57,0.57c-1.439,0.3-3.149,0.51-4.5,0.51c-3.72,0-6.749-1.62-6.749-7.289v-1.98
		c0-4.14,2.1-7.17,6.06-7.17c4.14,0,5.97,2.88,5.97,7.14v0.811C174.133,139.056,173.862,139.296,173.562,139.296z M172.812,137.915
		c0-3.779-1.26-5.97-4.649-5.97c-3.33,0-4.74,2.431-4.74,6v0.15h9.39V137.915z"/>
	<path style="fill:#575756;" d="M191.922,147.125c-0.45,0.061-1.05,0.09-1.56,0.09c-2.13,0-3.39-0.659-3.39-3.239v-11.82h-2.971
		c-0.33,0-0.569-0.18-0.569-0.479v-0.3c0-0.3,0.239-0.45,0.569-0.45h2.971v-3.09c0-0.3,0.18-0.57,0.51-0.57h0.33
		c0.3,0,0.479,0.271,0.479,0.57v3.09h3.57c0.33,0,0.569,0.15,0.569,0.45v0.3c0,0.3-0.239,0.479-0.569,0.479h-3.57v11.82
		c0,1.8,0.75,2.069,2.07,2.069h1.439c0.45,0,0.63,0.15,0.63,0.42v0.181C192.432,146.885,192.342,147.065,191.922,147.125z"/>
	<path style="fill:#575756;" d="M205.571,147.035h-0.15c-0.329,0-0.6-0.27-0.6-0.6v-0.75c-1.47,0.81-3.24,1.529-5.1,1.529
		c-2.25,0-4.59-1.08-4.59-4.829v-0.391c0-3.09,1.95-4.619,7.409-4.619h2.311v-1.08c0-3.12-0.87-4.351-3.78-4.351
		c-1.979,0-2.85,0.12-4.26,0.271c-0.3,0.03-0.689,0-0.689-0.45v-0.18c0-0.39,0.239-0.48,0.689-0.54c1.26-0.15,2.28-0.271,4.26-0.271
		c4.05,0,5.1,2.28,5.1,5.521v10.14C206.171,146.766,205.901,147.035,205.571,147.035z M204.852,138.546h-2.311
		c-4.529,0-6.089,0.899-6.089,3.449v0.391c0,2.789,1.47,3.659,3.27,3.659c1.68,0,3.12-0.45,5.13-1.529V138.546z M198.792,127.776
		h-0.181c-0.3,0-0.569-0.24-0.569-0.57v-2.22c0-0.3,0.27-0.57,0.569-0.57h0.181c0.3,0,0.569,0.271,0.569,0.57v2.22
		C199.361,127.536,199.092,127.776,198.792,127.776z M203.291,127.776h-0.18c-0.3,0-0.57-0.24-0.57-0.57v-2.22
		c0-0.3,0.271-0.57,0.57-0.57h0.18c0.301,0,0.57,0.271,0.57,0.57v2.22C203.861,127.536,203.592,127.776,203.291,127.776z"/>
	<path style="fill:#575756;" d="M214.781,147.215c-1.35,0-3.27-0.21-4.35-0.42c-0.42-0.09-0.66-0.149-0.66-0.479v-0.33
		c0-0.36,0.3-0.48,0.66-0.42c1.439,0.24,3.18,0.479,4.409,0.479c2.16,0,3.811-0.569,3.811-3c0-1.229-0.66-1.89-3.181-3.27
		l-1.92-1.05c-2.249-1.23-3.629-2.22-3.629-4.26c0-2.79,2.22-3.69,4.59-3.69c2.159,0,3.27,0.15,4.289,0.271
		c0.42,0.06,0.63,0.12,0.63,0.51v0.24c0,0.479-0.18,0.54-0.63,0.479c-0.779-0.09-2.52-0.33-4.17-0.33c-1.92,0-3.39,0.391-3.39,2.521
		c0,1.319,1.08,2.1,2.91,3.12l2.01,1.109c2.49,1.38,3.81,2.37,3.81,4.35C219.971,146.255,217.571,147.215,214.781,147.215z"/>
	<path style="fill:#575756;" d="M230.681,147.125c-0.45,0.061-1.05,0.09-1.56,0.09c-2.13,0-3.39-0.659-3.39-3.239v-11.82h-2.971
		c-0.329,0-0.569-0.18-0.569-0.479v-0.3c0-0.3,0.24-0.45,0.569-0.45h2.971v-3.09c0-0.3,0.18-0.57,0.51-0.57h0.33
		c0.3,0,0.479,0.271,0.479,0.57v3.09h3.57c0.33,0,0.569,0.15,0.569,0.45v0.3c0,0.3-0.239,0.479-0.569,0.479h-3.57v11.82
		c0,1.8,0.75,2.069,2.07,2.069h1.439c0.45,0,0.63,0.15,0.63,0.42v0.181C231.19,146.885,231.101,147.065,230.681,147.125z"/>
	<path style="fill:#575756;" d="M244.33,147.035h-0.15c-0.329,0-0.6-0.27-0.6-0.6v-0.75c-1.47,0.81-3.24,1.529-5.1,1.529
		c-2.25,0-4.59-1.08-4.59-4.829v-0.391c0-3.09,1.95-4.619,7.409-4.619h2.311v-1.08c0-3.12-0.87-4.351-3.78-4.351
		c-1.979,0-2.85,0.12-4.26,0.271c-0.3,0.03-0.689,0-0.689-0.45v-0.18c0-0.39,0.239-0.48,0.689-0.54c1.26-0.15,2.28-0.271,4.26-0.271
		c4.05,0,5.1,2.28,5.1,5.521v10.14C244.93,146.766,244.66,147.035,244.33,147.035z M243.61,138.546H241.3
		c-4.529,0-6.089,0.899-6.089,3.449v0.391c0,2.789,1.47,3.659,3.27,3.659c1.68,0,3.12-0.45,5.13-1.529V138.546z M237.551,127.776
		h-0.181c-0.3,0-0.569-0.24-0.569-0.57v-2.22c0-0.3,0.27-0.57,0.569-0.57h0.181c0.3,0,0.569,0.271,0.569,0.57v2.22
		C238.12,127.536,237.851,127.776,237.551,127.776z M242.05,127.776h-0.18c-0.3,0-0.57-0.24-0.57-0.57v-2.22
		c0-0.3,0.271-0.57,0.57-0.57h0.18c0.301,0,0.57,0.271,0.57,0.57v2.22C242.62,127.536,242.351,127.776,242.05,127.776z"/>
</g>
<g>
	<path style="fill:#575756;" d="M25.921,142.596l-0.21,0.21c-0.09,0.09-0.21,0.12-0.3,0.12c-0.15,0-0.33-0.091-0.48-0.21
		l-7.979-6.54c-0.3-0.24-0.45-0.54-0.45-0.87c0-0.3,0.15-0.63,0.45-0.87l7.979-6.54c0.15-0.119,0.33-0.21,0.48-0.21
		c0.09,0,0.21,0.03,0.3,0.12l0.21,0.21c0.09,0.09,0.15,0.21,0.15,0.33c0,0.181-0.09,0.33-0.24,0.45l-7.95,6.51l7.95,6.51
		c0.15,0.12,0.24,0.27,0.24,0.45C26.072,142.386,26.012,142.505,25.921,142.596z"/>
</g>
<g>
	<path style="fill:#575756;" d="M270.82,142.266c0-0.181,0.091-0.33,0.24-0.45l7.95-6.51l-7.95-6.51
		c-0.149-0.12-0.24-0.27-0.24-0.45c0-0.12,0.061-0.24,0.15-0.33l0.211-0.21c0.09-0.09,0.209-0.12,0.299-0.12
		c0.15,0,0.33,0.091,0.48,0.21l7.979,6.54c0.3,0.24,0.45,0.57,0.45,0.87c0,0.33-0.15,0.63-0.45,0.87l-7.979,6.54
		c-0.15,0.119-0.33,0.21-0.48,0.21c-0.09,0-0.209-0.03-0.299-0.12l-0.211-0.21C270.881,142.505,270.82,142.386,270.82,142.266z"/>
</g>
</svg>
